<?xml version="1.0" ?><svg style="enable-background:new 0 0 48 48;" version="1.1" viewBox="0 0 48 48" xml:space="preserve" xmlns="http://www.w3.org/2000/svg" xmlns:xlink="http://www.w3.org/1999/xlink"><g id="Padding__x26__Artboard"/><g id="Icons"><g><path d="M14.24302,24.64044c-0.00195,0-0.00391,0-0.00586,0c-0.19336,0.00293-0.34717,0.16211-0.34424,0.35547    c0.00684,0.4082,0.0498,0.81738,0.12695,1.21777c0.03271,0.16699,0.1792,0.2832,0.34326,0.2832    c0.02197,0,0.04443-0.00195,0.06689-0.00586c0.18994-0.03711,0.31396-0.2207,0.27734-0.41016    c-0.06982-0.36035-0.1084-0.72949-0.11426-1.09668C14.5897,24.79278,14.43394,24.64044,14.24302,24.64044z" style="fill:none;"/><path d="M16.90562,19.06426c-0.51611,0.36523-0.98145,0.79785-1.38379,1.28613    c-0.6543,0.79492-1.1377,1.74023-1.39795,2.7334c-0.04932,0.1875,0.0625,0.37793,0.24951,0.42773    c0.02979,0.00781,0.05957,0.01074,0.08887,0.01074c0.15527,0,0.29736-0.10352,0.33838-0.26074    c0.23535-0.89648,0.67139-1.74902,1.26123-2.46582c0.36328-0.44043,0.7832-0.83105,1.24805-1.16113    c0.15771-0.11133,0.19531-0.33008,0.0835-0.4873C17.28111,18.98809,17.06187,18.95098,16.90562,19.06426z" style="fill:none;"/><polygon points="28.09672,14.69317 28.25669,15.31017 29.28495,14.7503 29.30778,14.7503 29.30778,15.72143     29.30778,17.62945 29.30778,19.93725 29.45634,19.93725 30.08469,19.93725 30.08469,19.50311 30.08469,17.09246     30.08469,15.72143 30.08469,13.99627 29.39921,13.99627   " style="fill:none;"/><path d="M17.39341,19.14727c-0.1123-0.15918-0.33154-0.19629-0.48779-0.08301    c-0.51611,0.36523-0.98145,0.79785-1.38379,1.28613c-0.6543,0.79492-1.1377,1.74023-1.39795,2.7334    c-0.04932,0.1875,0.0625,0.37793,0.24951,0.42773c0.02979,0.00781,0.05957,0.01074,0.08887,0.01074    c0.15527,0,0.29736-0.10352,0.33838-0.26074c0.23535-0.89648,0.67139-1.74902,1.26123-2.46582    c0.36328-0.44043,0.7832-0.83105,1.24805-1.16113C17.46763,19.52325,17.50523,19.3045,17.39341,19.14727z" style="fill:none;"/><path d="M14.24302,24.64044c-0.00195,0-0.00391,0-0.00586,0c-0.19336,0.00293-0.34717,0.16211-0.34424,0.35547    c0.00684,0.4082,0.0498,0.81738,0.12695,1.21777c0.03271,0.16699,0.1792,0.2832,0.34326,0.2832    c0.02197,0,0.04443-0.00195,0.06689-0.00586c0.18994-0.03711,0.31396-0.2207,0.27734-0.41016    c-0.06982-0.36035-0.1084-0.72949-0.11426-1.09668C14.5897,24.79278,14.43394,24.64044,14.24302,24.64044z" style="fill:none;"/><polygon points="28.09672,14.69317 28.25669,15.31017 29.28495,14.7503 29.30778,14.7503 29.30778,15.72143     29.30778,17.62945 29.30778,19.93725 29.45634,19.93725 30.08469,19.93725 30.08469,19.50311 30.08469,17.09246     30.08469,15.72143 30.08469,13.99627 29.39921,13.99627   " style="fill:none;"/><path d="M33.88816,9.62481h-9.59473c-1.40332,0-2.54541,1.1416-2.54541,2.54492v4.00897v5.58575    c0,1.8323,1.14209,2.54492,2.54541,2.54492h4.79895h4.79578c1.40332,0,2.54541-1.1416,2.54541-2.54492v-9.59473    C36.43357,10.76641,35.29148,9.62481,33.88816,9.62481z M30.08469,15.72143v1.37103v2.41064v0.43414h-0.62836h-0.14856v-2.3078    v-1.90802V14.7503h-0.02283l-1.02826,0.55988l-0.15997-0.617l1.30249-0.6969h0.68549V15.72143z" style="fill:#303030;"/><path d="M32.99937,29.03106c-0.11816-0.30566-0.28857-0.52539-0.46045-0.7207    c-0.25146-0.24414-0.51904-0.41797-0.8208-0.52539c-1.1319-0.77924-1.77189-1.58407-2.22075-2.67568h-6.03241    c-1.25732,0-2.70448-1.16861-2.70448-2.42545l0.02069-6.6264c-0.01178-0.00146-0.02356-0.00323-0.03534-0.0047    c-0.58966-0.07227-0.87824-0.07117-1.46405-0.00977l-0.02313-0.05975c-0.22168-0.57812-0.65771-1.03613-1.22705-1.28906    s-1.20215-0.27051-1.77832-0.04785c-0.57764,0.22266-1.03516,0.6582-1.28857,1.22754    c-0.25293,0.56934-0.27002,1.2002-0.04785,1.77832l0.01929,0.05023c-3.008,2.28394-4.16516,6.26819-2.80396,9.79938    l1.32306,3.45502c0.00049,0.00128,0.00018,0.00269,0.00067,0.00397c0.4292,1.13184,0.48828,2.3877,0.17627,3.73242    c-0.33936,0.55957-0.4043,1.24707-0.17139,1.85254c0.00201,0.00513,0.00397,0.01019,0.00598,0.01532    c0.29114,0.7384,1.17957,1.04706,1.92108,0.7641l16.76031-6.39643c0.21344-0.08142,0.39282-0.21039,0.53998-0.36597    C33.064,30.16534,33.20652,29.57653,32.99937,29.03106z M14.43003,26.49102c-0.02246,0.00391-0.04492,0.00586-0.06689,0.00586    c-0.16406,0-0.31055-0.11621-0.34326-0.2832c-0.07715-0.40039-0.12012-0.80957-0.12695-1.21777    c-0.00293-0.19336,0.15088-0.35254,0.34424-0.35547c0.00195,0,0.00391,0,0.00586,0c0.19092,0,0.34668,0.15234,0.3501,0.34375    c0.00586,0.36719,0.04443,0.73633,0.11426,1.09668C14.744,26.27032,14.61997,26.45391,14.43003,26.49102z M17.30991,19.63458    c-0.46484,0.33008-0.88477,0.7207-1.24805,1.16113c-0.58984,0.7168-1.02588,1.56934-1.26123,2.46582    c-0.04102,0.15723-0.18311,0.26074-0.33838,0.26074c-0.0293,0-0.05908-0.00293-0.08887-0.01074    c-0.18701-0.0498-0.29883-0.24023-0.24951-0.42773c0.26025-0.99316,0.74365-1.93848,1.39795-2.7334    c0.40234-0.48828,0.86768-0.9209,1.38379-1.28613c0.15625-0.11328,0.37549-0.07617,0.48779,0.08301    C17.50523,19.3045,17.46763,19.52325,17.30991,19.63458z" style="fill:#303030;"/><path d="M23.86275,34.85706l-0.65344,0.25128l-4.06793,1.56427l-0.66119,0.25427    c0.48761,0.90338,1.43262,1.4483,2.43384,1.4483c0.33301,0,0.67188-0.05957,1.00098-0.18652l0.25098-0.09668    c0.68848-0.26562,1.23486-0.78223,1.53955-1.45703C23.96187,36.06659,24.00679,35.448,23.86275,34.85706z" style="fill:#303030;"/></g></g></svg>